<?xml version="1.0" encoding="UTF-8"?>
<svg width="33px" height="32px" viewBox="0 0 33 32" version="1.1" xmlns="http://www.w3.org/2000/svg" xmlns:xlink="http://www.w3.org/1999/xlink">
    <title>Logos/iGOT_symbol</title>
    <g id="Logos/iGOT_symbol" stroke="none" stroke-width="1" fill="none" fill-rule="evenodd">
        <path d="M25.5494086,15.6047149 C27.3787197,15.6047149 28.8616694,17.091407 28.8616694,18.9253347 C28.8616694,19.9731614 28.3775628,20.9076337 27.6213443,21.5162218 L28.6431799,24.9054508 C29.5111518,27.8147525 27.8726289,30.88066 24.975749,31.7677315 L24.975749,31.7677315 L24.7357528,31.8339482 C22.8902675,32.2985151 20.9281796,31.7744318 19.5564114,30.4354829 C20.3624478,30.083307 21.0564767,29.5158879 21.5627236,28.7951767 C22.5656649,29.5958164 23.9713381,29.6498178 25.0324551,28.9284727 C26.0935722,28.2071276 26.5636988,26.8779614 26.192905,25.6475893 L26.192905,25.6475893 L25.1601044,22.2232606 C23.5142487,22.0300798 22.2371478,20.6272251 22.2371478,18.9253347 C22.2371478,17.091407 23.7200975,15.6047149 25.5494086,15.6047149 Z M17.5999827,22.8350644 C19.4292938,22.8350644 20.9122435,24.3217565 20.9122435,26.1556841 C20.9122435,27.9896117 19.4292938,29.4763038 17.5999827,29.4763038 C16.9691858,29.4763038 16.3795733,29.2995271 15.8777478,28.9926938 L15.7712556,28.9232006 L12.8620531,30.9325756 C10.3624169,32.6478729 6.95023971,32.0173396 5.22489755,29.5213122 L5.22489755,29.5213122 L5.08315774,29.3031716 C4.08462449,27.6843482 3.98647532,25.6557436 4.83879968,23.9412708 C5.41885755,24.6032472 6.16911841,25.0928048 7.00773189,25.3565349 C6.55195068,26.5583873 6.92878766,27.9177337 7.93778426,28.7114694 C8.94678087,29.505205 10.3534231,29.5488475 11.4094471,28.8191812 L11.4094471,28.8191812 L14.3485797,26.7898024 C14.350913,26.8019054 14.3533122,26.8139881 14.3557772,26.8260503 C14.3109734,26.6095165 14.2877219,26.3853225 14.2877219,26.1556841 C14.2877219,24.3217565 15.7706716,22.8350644 17.5999827,22.8350644 Z M1.20445762,10.0520061 C2.3986272,8.56730596 4.27958791,7.80142217 6.17866903,8.04230351 C5.7468243,8.81001516 5.5335508,9.68186883 5.56210964,10.5627739 C4.27984271,10.5281133 3.12414787,11.3336203 2.70994536,12.5507022 C2.29574286,13.7677841 2.71933244,15.1134762 3.75533125,15.8717648 L3.75533125,15.8717648 L6.63659906,17.9831588 L6.63659906,17.9831588 L6.73859425,17.9245825 C7.20561942,17.6722632 7.73997724,17.5290741 8.30769448,17.5290741 C10.1370056,17.5290741 11.6199553,19.0157662 11.6199553,20.8496938 C11.6199553,22.6836215 10.1370056,24.1703136 8.30769448,24.1703136 C6.47838337,24.1703136 4.9954337,22.6836215 4.9954337,20.8496938 C4.9954337,20.567634 5.03051247,20.293788 5.09653498,20.0323012 L2.24585819,17.9441515 C-0.195502779,16.1451199 -0.72868526,12.706889 1.05264617,10.2497155 L1.05264617,10.2497155 Z M20.9092505,5.90090385 C22.3015364,5.90090385 23.4931852,6.76210134 23.9830954,7.98213019 L27.5138187,7.98229231 C30.5413088,7.99382794 32.9917949,10.4531788 33,13.4883199 L33,13.4883199 L32.9942789,13.727825 C32.9073873,15.6370001 31.8387119,17.3726219 30.1606343,18.3032186 C30.0574747,17.4276897 29.7165165,16.5973612 29.1749374,15.9027705 C30.230544,15.1722024 30.6894585,13.8382302 30.3075086,12.6106131 C29.9255587,11.3829961 28.7915427,10.5471388 27.5088303,10.5477711 L27.5088303,10.5477711 L23.945157,10.5477711 L23.945157,10.5477711 L23.9068149,10.6360624 C23.3769741,11.7625581 22.233924,12.5421433 20.9092505,12.5421433 C19.0799394,12.5421433 17.5969897,11.0554512 17.5969897,9.22152359 C17.5969897,7.38759595 19.0799394,5.90090385 20.9092505,5.90090385 Z M11.2787525,3.81651483 C12.2143229,0.929618933 15.2990793,-0.658648038 18.1846167,0.26085122 L18.1846167,0.26085122 L18.4102965,0.339538227 C20.1966453,1.00617753 21.5180982,2.55663955 21.8889614,4.44263169 C21.0262817,4.27355408 20.1338564,4.3451698 19.3089896,4.64967033 C18.9378097,3.41887295 17.8113171,2.5731283 16.528779,2.56235237 C15.2462408,2.55157644 14.105767,3.37827396 13.7140623,4.60266155 L13.7140623,4.60266155 L12.6241006,8.00617439 C13.3137911,8.61470657 13.7489807,9.50628411 13.7489807,10.4997622 C13.7489807,12.3336898 12.2660311,13.8203819 10.4367199,13.8203819 C8.60740882,13.8203819 7.12445916,12.3336898 7.12445916,10.4997622 C7.12445916,8.74616499 8.48034051,7.31005007 10.1984243,7.18760399 Z" id="Combined-Shape" fill="#F69953"></path>
    </g>
</svg>